{
    "asset" : {
        "generator" : "Khronos glTF Blender I/O v1.6.16",
        "version" : "2.0"
    },
    "scene" : 0,
    "scenes" : [
        {
            "name" : "Kitchen",
            "nodes" : [
                1,
                2
            ]
        }
    ],
    "nodes" : [
        {
            "mesh" : 0,
            "name" : "cook_006_13",
            "scale" : [
                0.4591039717197418,
                0.25344881415367126,
                0.4643125534057617
            ]
        },
        {
            "children" : [
                0
            ],
            "name" : "kitchen_03_root",
            "scale" : [
                0.009999999776482582,
                0.009999999776482582,
                0.009999999776482582
            ]
        },
        {
            "name" : "kitchen",
            "rotation" : [
                0.7071068286895752,
                0,
                0,
                0.7071067094802856
            ]
        }
    ],
    "materials" : [
        {
            "doubleSided" : true,
            "name" : "cook_006_13Mat",
            "pbrMetallicRoughness" : {
                "baseColorFactor" : [
                    0.8000000715255737,
                    0.4519142806529999,
                    0.23543445765972137,
                    1
                ],
                "metallicFactor" : 0,
                "roughnessFactor" : 0.5
            }
        }
    ],
    "meshes" : [
        {
            "name" : "cook_006_13",
            "primitives" : [
                {
                    "attributes" : {
                        "POSITION" : 0,
                        "NORMAL" : 1,
                        "TEXCOORD_0" : 2
                    },
                    "indices" : 3,
                    "material" : 0
                }
            ]
        }
    ],
    "accessors" : [
        {
            "bufferView" : 0,
            "componentType" : 5126,
            "count" : 24979,
            "max" : [
                964.6815795898438,
                1006.901611328125,
                292.12548828125
            ],
            "min" : [
                -1549.1495361328125,
                1.1420999765396118,
                -349.2333068847656
            ],
            "type" : "VEC3"
        },
        {
            "bufferView" : 1,
            "componentType" : 5126,
            "count" : 24979,
            "type" : "VEC3"
        },
        {
            "bufferView" : 2,
            "componentType" : 5126,
            "count" : 24979,
            "type" : "VEC2"
        },
        {
            "bufferView" : 3,
            "componentType" : 5123,
            "count" : 83190,
            "type" : "SCALAR"
        }
    ],
    "bufferViews" : [
        {
            "buffer" : 0,
            "byteLength" : 299748,
            "byteOffset" : 0
        },
        {
            "buffer" : 0,
            "byteLength" : 299748,
            "byteOffset" : 299748
        },
        {
            "buffer" : 0,
            "byteLength" : 199832,
            "byteOffset" : 599496
        },
        {
            "buffer" : 0,
            "byteLength" : 166380,
            "byteOffset" : 799328
        }
    ],
    "buffers" : [
        {
            "byteLength" : 965708,
            "uri" : "data:application/octet-stream;base64,"
        }
    ]
}
