{
    "asset" : {
        "generator" : "Khronos glTF Blender I/O v1.6.16",
        "version" : "2.0"
    },
    "scene" : 0,
    "scenes" : [
        {
            "name" : "Scene",
            "nodes" : [
                0,
                1,
                2
            ]
        }
    ],
    "nodes" : [
        {
            "name" : "Light",
            "rotation" : [
                0.16907575726509094,
                0.7558803558349609,
                -0.27217137813568115,
                0.570947527885437
            ],
            "translation" : [
                4.076245307922363,
                5.903861999511719,
                -1.0054539442062378
            ]
        },
        {
            "name" : "Camera",
            "rotation" : [
                0.483536034822464,
                0.33687159419059753,
                -0.20870360732078552,
                0.7804827094078064
            ],
            "translation" : [
                7.358891487121582,
                4.958309173583984,
                6.925790786743164
            ]
        },
        {
            "mesh" : 0,
            "name" : "19383_Short_fat_mushroom_v1.001",
            "rotation" : [
                0.005772081669420004,
                0,
                0,
                0.9999833703041077
            ],
            "scale" : [
                0.05123208090662956,
                0.05123208090662956,
                0.05123208090662956
            ]
        }
    ],
    "materials" : [
        {
            "doubleSided" : true,
            "name" : "19383_Short_fat_mushroom.001",
            "pbrMetallicRoughness" : {
                "baseColorFactor" : [
                    0.8000000715255737,
                    0.5487154722213745,
                    0.2568436563014984,
                    1
                ],
                "metallicFactor" : 0,
                "roughnessFactor" : 0.5
            }
        }
    ],
    "meshes" : [
        {
            "name" : "19383_Short_fat_mushroom_v1.001",
            "primitives" : [
                {
                    "attributes" : {
                        "POSITION" : 0,
                        "NORMAL" : 1,
                        "TEXCOORD_0" : 2
                    },
                    "indices" : 3,
                    "material" : 0
                }
            ]
        }
    ],
    "accessors" : [
        {
            "bufferView" : 0,
            "componentType" : 5126,
            "count" : 4196,
            "max" : [
                5.44890022277832,
                9.471799850463867,
                4.008500099182129
            ],
            "min" : [
                -2.5782999992370605,
                0.5728999972343445,
                -4.008500099182129
            ],
            "type" : "VEC3"
        },
        {
            "bufferView" : 1,
            "componentType" : 5126,
            "count" : 4196,
            "type" : "VEC3"
        },
        {
            "bufferView" : 2,
            "componentType" : 5126,
            "count" : 4196,
            "type" : "VEC2"
        },
        {
            "bufferView" : 3,
            "componentType" : 5123,
            "count" : 24576,
            "type" : "SCALAR"
        }
    ],
    "bufferViews" : [
        {
            "buffer" : 0,
            "byteLength" : 50352,
            "byteOffset" : 0
        },
        {
            "buffer" : 0,
            "byteLength" : 50352,
            "byteOffset" : 50352
        },
        {
            "buffer" : 0,
            "byteLength" : 33568,
            "byteOffset" : 100704
        },
        {
            "buffer" : 0,
            "byteLength" : 49152,
            "byteOffset" : 134272
        }
    ],
    "buffers" : [
        {
            "byteLength" : 183424,
            "uri" : "data:application/octet-stream;base64,"
        }
    ]
}
